<svg width="101" height="30" viewBox="0 0 101 30" fill="none" xmlns="http://www.w3.org/2000/svg">
<path d="M46.5036 17.1168L48.1133 15.5072H37.3144C34.1762 15.5072 32.5339 16.7864 32.2944 19.4182L32.2679 19.6572H36.9675C37.0906 19.1237 37.4754 18.8453 38.0681 18.8453H40.7357C41.2629 18.8453 41.6582 18.9856 41.9111 19.2619C42.1557 19.5294 42.2575 19.9137 42.2129 20.4046L42.0908 21.5836L41.7761 21.4657C41.3434 21.3031 40.7783 21.2211 40.0979 21.2211H36.0086C33.047 21.2211 31.5096 22.4235 31.3086 24.8974L31.1632 26.3522C31.0723 27.4669 31.3018 28.3337 31.8451 28.9238C32.4923 29.626 33.6199 29.9818 35.1968 29.9818H38.9957C39.8938 29.9818 40.6609 29.8073 41.2759 29.4634L41.7132 29.2188L41.6332 29.9818H46.0668L47.0023 19.6618C47.0745 18.6973 46.9389 17.898 46.5992 17.2887L46.5036 17.1168ZM41.7132 26.1569C41.5875 26.6576 41.1995 26.9334 40.6204 26.9334H37.0817C36.6849 26.9334 36.3826 26.8254 36.1832 26.613C35.9873 26.4047 35.9006 26.1076 35.924 25.7295L35.9531 25.209C36.0003 24.4518 36.4527 24.0357 37.2272 24.0357H40.852C41.5584 24.0357 41.7672 24.4502 41.829 24.6969L41.8394 24.739L41.7132 26.1569Z" fill="white"/>
<path d="M65.7787 19.3076L66.0077 17.0139L67.5155 15.5072H50.9482L50.593 19.1933H60.1619L50.004 26.1798L49.6892 29.9813H62.8726L66.5583 26.2956H55.681L65.7787 19.3076Z" fill="white"/>
<path d="M74.667 15.5072C71.5091 15.5072 69.8574 16.8057 69.6179 19.4764L69.0668 26.0577C68.9749 27.2711 69.2284 28.2112 69.82 28.8495C70.516 29.6006 71.7173 29.9813 73.3908 29.9813H79.6839C82.6466 29.9813 84.1933 28.7778 84.4136 26.3024L84.4494 25.8313H79.7473C79.6455 26.3808 79.2684 26.6722 78.6685 26.6722H75.1012C74.6665 26.6722 74.3346 26.5548 74.1154 26.3226C73.9004 26.0957 73.8038 25.77 73.8271 25.3539L73.9435 23.7609L74.2962 23.951C74.7584 24.1998 75.322 24.3261 75.9712 24.3261H81.4815C83.4869 24.3261 84.5408 23.3605 84.7029 21.3748L84.8769 19.4297C84.9496 18.5529 84.8498 17.8164 84.5813 17.2425L84.5039 17.0773L86.0746 15.5066L74.667 15.5072ZM80.1166 20.1418L80.0875 20.4892C80.0137 21.1317 79.6133 21.4813 78.9593 21.4813H75.2181C74.6177 21.4813 74.2588 21.1582 74.2338 20.5947L74.2629 20.1033C74.333 19.2894 74.8369 18.8448 75.6824 18.8448H79.1619C79.4637 18.8448 79.7016 18.9378 79.8693 19.1206C80.0755 19.345 80.156 19.679 80.1166 20.1418Z" fill="white"/>
<path d="M95.0872 25.0194L95.5999 19.1933H97.0064L100.692 15.5071H95.9328L96.2242 11.9124L97.7626 10.3744H91.5506L91.0868 15.5077H88.4784L88.1735 19.1939H90.7554L90.1804 25.8557C90.063 27.1277 90.3139 28.112 90.9252 28.7825C91.6508 29.5787 92.9234 29.9823 94.707 29.9823H96.0496L99.7353 26.2967H96.2735C95.8409 26.2967 95.5178 26.1798 95.3137 25.9502C95.1163 25.7279 95.0399 25.4147 95.0872 25.0194Z" fill="white"/>
<path d="M17.6753 29.5211H25.0991L26.5254 12.9543H14.1522L13.6489 18.7004H18.6404L18.2628 23.0208L17.7595 28.5566L17.6753 29.5211Z" fill="url(#paint0_linear_702_2022)"/>
<path d="M28.8741 0.455444H10.7969C5.26064 0.455444 2.31044 2.86079 1.94686 7.6694L0.730945 22.3077C0.339317 27.1168 2.91191 29.5211 8.44819 29.5211H13.649C15.27 29.5211 16.6412 29.2006 17.7595 28.5566L18.2628 23.0208C18.095 23.5521 17.5491 23.8176 16.6267 23.8176H10.5871C9.02161 23.8176 8.28043 23.0494 8.36457 21.5109L9.49635 8.46719C9.58049 6.92977 10.4048 6.16054 11.9713 6.16054H17.0879C18.6534 6.16054 19.3946 6.92977 19.3109 8.46719L19.2273 9.7257H26.8189L27.0282 7.66992C27.1674 5.82449 26.8599 4.34316 26.1052 3.22437L28.8741 0.455444Z" fill="url(#paint1_linear_702_2022)"/>
<path d="M11.9084 29.5211H13.649C15.27 29.5211 16.6412 29.2006 17.7595 28.5566L18.2628 23.0208C18.1584 23.3517 17.907 23.5792 17.5097 23.7038C17.184 24.9431 16.019 27.6466 11.9084 29.5211Z" fill="url(#paint2_linear_702_2022)"/>
<defs>
<linearGradient id="paint0_linear_702_2022" x1="20.8419" y1="12.4538" x2="18.4784" y2="29.5239" gradientUnits="userSpaceOnUse">
<stop stop-color="#FFD185"/>
<stop offset="0.1489" stop-color="#FDC183"/>
<stop offset="0.4421" stop-color="#F8957C"/>
<stop offset="0.8475" stop-color="#F05172"/>
<stop offset="1" stop-color="#ED356E"/>
</linearGradient>
<linearGradient id="paint1_linear_702_2022" x1="19.3921" y1="3.65802" x2="5.20672" y2="23.4371" gradientUnits="userSpaceOnUse">
<stop stop-color="#6EC7F7"/>
<stop offset="0.1941" stop-color="#73B7F7"/>
<stop offset="0.576" stop-color="#7F8CF7"/>
<stop offset="1" stop-color="#8E55F7"/>
</linearGradient>
<linearGradient id="paint2_linear_702_2022" x1="15.59" y1="26.466" x2="17.5596" y2="27.2276" gradientUnits="userSpaceOnUse">
<stop offset="0.0726" stop-opacity="0.1"/>
<stop offset="0.4609" stop-opacity="0.3"/>
<stop offset="1" stop-opacity="0.5"/>
</linearGradient>
</defs>
</svg>
